<svg width="31" height="30" viewBox="0 0 31 30" fill="none" xmlns="http://www.w3.org/2000/svg">
<path d="M5.88798 0C2.85351 0 0.410156 2.44335 0.410156 5.47782V24.5222C0.410156 27.5567 2.85351 30 5.88798 30H16.2099V18.2719H13.1086V14.0494H16.2099V10.4419C16.2099 7.60764 18.0422 5.00532 22.2633 5.00532C23.9723 5.00532 25.2361 5.16939 25.2361 5.16939L25.1367 9.11253C25.1367 9.11253 23.8478 9.10035 22.4414 9.10035C20.9192 9.10035 20.6752 9.80169 20.6752 10.966V14.0494H25.2577L25.058 18.2719H20.6752V30.0001H24.9323C27.9668 30.0001 30.4102 27.5567 30.4102 24.5222V5.47785C30.4102 2.44338 27.9668 3e-05 24.9323 3e-05H5.88795L5.88798 0Z" fill="#F87D50"/>
</svg>
