<svg width="29" height="30" viewBox="0 0 29 30" fill="none" xmlns="http://www.w3.org/2000/svg">
<path d="M14.4097 10.1938C11.7631 10.1938 9.60324 12.3536 9.60324 15.0002C9.60324 17.6469 11.7631 19.8067 14.4097 19.8067C17.0564 19.8067 19.2162 17.6469 19.2162 15.0002C19.2162 12.3536 17.0564 10.1938 14.4097 10.1938ZM28.8256 15.0002C28.8256 13.0099 28.8436 11.0375 28.7318 9.05073C28.6201 6.74303 28.0936 4.69496 26.4061 3.00746C24.715 1.31635 22.6705 0.793515 20.3629 0.681737C18.3725 0.569958 16.4001 0.587987 14.4133 0.587987C12.4229 0.587987 10.4506 0.569958 8.46381 0.681737C6.15612 0.793515 4.10804 1.31996 2.42054 3.00746C0.729438 4.69856 0.206601 6.74303 0.0948225 9.05073C-0.0169564 11.0411 0.00107251 13.0135 0.00107251 15.0002C0.00107251 16.987 -0.0169564 18.963 0.0948225 20.9498C0.206601 23.2575 0.733044 25.3055 2.42054 26.993C4.11165 28.6841 6.15612 29.207 8.46381 29.3188C10.4542 29.4305 12.4266 29.4125 14.4133 29.4125C16.4037 29.4125 18.3761 29.4305 20.3629 29.3188C22.6705 29.207 24.7186 28.6805 26.4061 26.993C28.0972 25.3019 28.6201 23.2575 28.7318 20.9498C28.8472 18.963 28.8256 16.9906 28.8256 15.0002ZM14.4097 22.3957C10.3172 22.3957 7.01429 19.0928 7.01429 15.0002C7.01429 10.9077 10.3172 7.60481 14.4097 7.60481C18.5023 7.60481 21.8052 10.9077 21.8052 15.0002C21.8052 19.0928 18.5023 22.3957 14.4097 22.3957ZM22.108 9.02909C21.1525 9.02909 20.3809 8.25746 20.3809 7.30193C20.3809 6.3464 21.1525 5.57477 22.108 5.57477C23.0636 5.57477 23.8352 6.3464 23.8352 7.30193C23.8355 7.52882 23.791 7.75354 23.7043 7.96322C23.6176 8.1729 23.4904 8.36341 23.33 8.52385C23.1695 8.68429 22.979 8.8115 22.7693 8.8982C22.5597 8.9849 22.3349 9.02938 22.108 9.02909Z" fill="#F87D50"/>
</svg>
