<svg width="31" height="30" viewBox="0 0 31 30" fill="none" xmlns="http://www.w3.org/2000/svg">
<path d="M25.9664 25.5666H21.5292V18.6038C21.5292 16.9434 21.4945 14.8097 19.2089 14.8097C16.8952 14.8097 16.5427 16.6106 16.5427 18.4809V25.5656H12.0998V11.2491H16.3673V13.2019H16.4245C17.0208 12.0741 18.4711 10.8881 20.6348 10.8881C25.1358 10.8881 25.9711 13.8516 25.9711 17.7047V25.5656L25.9664 25.5666ZM7.08047 9.2925C6.74135 9.29262 6.40554 9.22584 6.09227 9.09599C5.77901 8.96613 5.49443 8.77574 5.25486 8.53573C5.01529 8.29572 4.82542 8.0108 4.69613 7.6973C4.56684 7.3838 4.50067 7.04787 4.50141 6.70875C4.50196 6.19833 4.65385 5.69953 4.93787 5.27543C5.22189 4.85133 5.62528 4.52096 6.09704 4.3261C6.56881 4.13124 7.08775 4.08064 7.58827 4.1807C8.08879 4.28075 8.5484 4.52697 8.909 4.88822C9.26959 5.24947 9.51497 5.70953 9.61412 6.21023C9.71327 6.71093 9.66173 7.22978 9.46601 7.70119C9.2703 8.1726 8.9392 8.57539 8.51458 8.85864C8.08996 9.14189 7.59089 9.29287 7.08047 9.2925ZM9.30609 25.5666H4.85391V11.25H9.30609V25.5666ZM28.1939 0H2.62266C1.40109 0 0.410156 0.966562 0.410156 2.16281V27.8381C0.410156 29.0344 1.40109 30.0009 2.62266 30.0009H28.1892C29.4089 30.0009 30.4102 29.0344 30.4102 27.8381V2.16281C30.4102 0.966562 29.4089 0 28.1892 0H28.1939Z" fill="#F87D50"/>
</svg>
