<svg width="169" height="146" viewBox="0 0 169 146" fill="none" xmlns="http://www.w3.org/2000/svg">
<path d="M52.5866 31.262H91.2813C93.9271 31.262 96.2422 33.59 96.2422 36.2506C96.2422 38.9112 93.9271 41.2392 91.2813 41.2392H52.5866C49.9408 41.2392 47.6257 38.9112 47.6257 36.2506C47.6257 33.59 49.6101 31.262 52.5866 31.262Z" fill="#F1F1F1"/>
<path d="M52.5866 31.262H91.2813C93.9271 31.262 96.2422 33.59 96.2422 36.2506C96.2422 38.9112 93.9271 41.2392 91.2813 41.2392H52.5866C49.9408 41.2392 47.6257 38.9112 47.6257 36.2506C47.6257 33.59 49.6101 31.262 52.5866 31.262Z" stroke="white"/>
<path d="M78.0509 6.3189C86.319 6.3189 94.2564 7.31663 102.194 9.64464C109.139 3.32574 117.407 0 126.337 0C130.305 0 134.605 0.665151 138.904 2.32802C141.55 3.32574 143.534 4.98861 144.526 7.31663C145.519 9.64465 145.849 12.3052 144.857 14.9658L138.904 31.9271C144.526 37.9134 148.826 44.8975 151.802 52.2141H159.078C164.701 52.2141 169 56.5376 169 62.1913V87.1344C169 92.7882 164.701 97.1116 159.078 97.1116H152.133C149.157 105.093 143.865 115.071 131.959 118.729V135.69C131.959 141.344 127.659 145.667 122.037 145.667H98.2251C92.6027 145.667 88.3033 141.344 88.3033 135.69V133.362C84.9961 133.695 81.6888 134.027 78.0509 134.027C75.0744 134.027 72.0978 134.027 69.452 133.695V136.023C69.452 141.677 65.1526 146 59.5303 146H35.7182C30.0959 146 25.7965 141.677 25.7965 136.023V120.059C9.591 115.403 0 98.7745 0 74.8292C0 36.9157 35.0567 6.3189 78.0509 6.3189ZM35.3875 111.08V135.69H59.1996V121.722C65.1526 123.052 71.4364 124.05 77.7202 124.05C84.6654 124.05 91.6106 123.052 97.8943 121.39V135.69H121.706V110.082C135.928 110.082 140.888 99.7722 144.196 87.1344H158.748V62.1913H144.526C141.881 51.549 135.597 42.2369 127.329 34.5877L135.266 11.6401C131.959 10.3098 128.982 9.97722 126.006 9.97722C116.415 9.97722 109.47 15.631 104.84 20.9522C96.5714 17.959 87.6419 16.2961 78.0509 16.2961C40.3483 16.2961 9.92172 42.2369 9.92172 74.4966C9.92172 92.7881 16.2055 111.08 35.3875 111.08Z" fill="#F1F1F1"/>
<path d="M78.0509 6.3189C86.319 6.3189 94.2564 7.31663 102.194 9.64464C109.139 3.32574 117.407 0 126.337 0C130.305 0 134.605 0.665151 138.904 2.32802C141.55 3.32574 143.534 4.98861 144.526 7.31663C145.519 9.64465 145.849 12.3052 144.857 14.9658L138.904 31.9271C144.526 37.9134 148.826 44.8975 151.802 52.2141H159.078C164.701 52.2141 169 56.5376 169 62.1913V87.1344C169 92.7882 164.701 97.1116 159.078 97.1116H152.133C149.157 105.093 143.865 115.071 131.959 118.729V135.69C131.959 141.344 127.659 145.667 122.037 145.667H98.2251C92.6027 145.667 88.3033 141.344 88.3033 135.69V133.362C84.9961 133.695 81.6888 134.027 78.0509 134.027C75.0744 134.027 72.0978 134.027 69.452 133.695V136.023C69.452 141.677 65.1526 146 59.5303 146H35.7182C30.0959 146 25.7965 141.677 25.7965 136.023V120.059C9.591 115.403 0 98.7745 0 74.8292C0 36.9157 35.0567 6.3189 78.0509 6.3189ZM35.3875 111.08V135.69H59.1996V121.722C65.1526 123.052 71.4364 124.05 77.7202 124.05C84.6654 124.05 91.6106 123.052 97.8943 121.39V135.69H121.706V110.082C135.928 110.082 140.888 99.7722 144.196 87.1344H158.748V62.1913H144.526C141.881 51.549 135.597 42.2369 127.329 34.5877L135.266 11.6401C131.959 10.3098 128.982 9.97722 126.006 9.97722C116.415 9.97722 109.47 15.631 104.84 20.9522C96.5714 17.959 87.6419 16.2961 78.0509 16.2961C40.3483 16.2961 9.92172 42.2369 9.92172 74.4966C9.92172 92.7881 16.2055 111.08 35.3875 111.08Z" stroke="white"/>
<path d="M113.44 71.5033C110.335 71.5033 107.818 68.972 107.818 65.8496C107.818 62.7271 110.335 60.1958 113.44 60.1958C116.545 60.1958 119.062 62.7271 119.062 65.8496C119.062 68.972 116.545 71.5033 113.44 71.5033Z" fill="#F1F1F1"/>
<path d="M113.44 71.5033C110.335 71.5033 107.818 68.972 107.818 65.8496C107.818 62.7271 110.335 60.1958 113.44 60.1958C116.545 60.1958 119.062 62.7271 119.062 65.8496C119.062 68.972 116.545 71.5033 113.44 71.5033Z" stroke="white"/>
</svg>
